<?xml version="1.0" encoding="utf-8"?>
<!-- Generator: Adobe Illustrator 24.3.0, SVG Export Plug-In . SVG Version: 6.00 Build 0)  -->
<svg version="1.1" id="Layer_1" xmlns="http://www.w3.org/2000/svg" xmlns:xlink="http://www.w3.org/1999/xlink" x="0px" y="0px"
	 viewBox="0 0 145.1179962 36.3269997" style="enable-background:new 0 0 145.1179962 36.3269997;" xml:space="preserve">
<style type="text/css">
	.st0{fill:#DA0B37;}
</style>
<g>
	<g>
		<path class="st0" d="M139.9229889,19.9859447c-2.0480804,0-3.5165558,1.6231155-3.5165558,3.477993
			c0,1.970562,1.4684753,3.477602,3.5165558,3.477602s3.5551147-1.50704,3.5551147-3.477602
			C143.4781036,21.6090603,141.9710693,19.9859447,139.9229889,19.9859447z"/>
		<path class="st0" d="M15.0682154,11.4077215L9.6971807,10.209959C8.0742636,9.8621206,7.6105447,9.0893202,7.6105447,8.046195
			c0-1.4684768,1.3523993-2.6276779,3.4777923-2.6276779c1.7751694,0,3.5214176,0.9000263,4.257019,2.7254467
			c0.1549778,0.3845501,0.276536,0.6489582,0.6652241,0.7094555c0.0671425,0.0127811,0.3543816,0.0199623,0.4250793,0.020133
			l4.1441555,0.0101519c1.3228512,0,1.3027859-0.3495235,1.2096806-1.2551842c0,0-0.0177612-0.4122138-0.2606735-1.0915551
			c-1.3839989-3.9591179-5.2350922-6.2577276-10.3633604-6.2577276c-6.066515,0-10.2397881,3.1297646-10.2397881,8.1533575
			c0,4.7139282,3.2458353,6.6463194,6.9553895,7.4962435l5.409791,1.1592007
			c1.8546791,0.3864002,2.3957167,1.1206398,2.3957167,2.2798405c0,1.5845528-1.429718,2.6662407-3.8254347,2.6662407
			c-2.1766634,0-3.7967567-0.8193722-4.656467-2.664732c-0.0070601-0.0151176-0.0127082-0.0313072-0.0203037-0.046011
			c-0.0362248-0.0795841-0.0425191-0.0736237-0.0733261-0.1579971c-0.1303997-0.3571358-0.5372887-0.4019814-0.9301639-0.388567
			c-0.0009742,0.0000229-0.0017529-0.0001945-0.002727-0.0001717l-4.8828082,0.0068855
			c-0.6236635,0.0016308-0.9255056,0.0567856-0.9255055,1.0874863c-0.0000367,0.414772,0.0134528,0.507206,0.0731803,0.8104134
			c0.8649577,4.3909645,5.7133698,6.6466103,11.0702839,6.6466103c5.7576284,0,10.6649427-2.8594398,10.6649427-8.3851204
			C22.1782417,14.8467627,19.5507641,12.412674,15.0682154,11.4077215z"/>
		<path class="st0" d="M81.5735168,6.7709184c-2.4344711,0-4.4825516,0.8888764-5.9508286,2.4344773V7.9158392
			c0-0.3122182-0.2531052-0.5653205-0.5653229-0.5653205h-5.0519485c-0.3122177,0-0.5653152,0.2531023-0.5653152,0.5653205
			v18.2672768c0,0.3122177,0.2530975,0.565321,0.5653152,0.565321h5.0519485c0.3122177,0,0.5653229-0.2531033,0.5653229-0.565321
			v-8.4379635c0-3.7483158,1.5841599-5.4099932,4.018631-5.4099932c1.9707565,0,3.3231583,1.5456018,3.3231583,3.8254404v10.0225163
			c0,0.3122177,0.2531052,0.565321,0.5653229,0.565321h5.0131912c0.3122177,0,0.5653229-0.2531033,0.5653229-0.565321V14.8467627
			C89.1083145,9.9781961,86.0942383,6.7709184,81.5735168,6.7709184z"/>
		<path class="st0" d="M56.9976959,6.9818659C51.39748,6.9480753,46.8301659,11.4606476,46.7963753,17.0609207
			c-0.0337906,5.6003208,4.4787483,10.1675949,10.0790138,10.2013855
			c5.6003113,0.0337658,10.1676254-4.4787331,10.2013702-10.0790291
			C67.1105499,11.5829802,62.5980568,7.0156565,56.9976959,6.9818659z M56.90728,21.9798069
			c-2.6828384-0.0161896-4.8446045-2.2041531-4.8283882-4.8870201c0.0161629-2.6828184,2.2041702-4.8445854,4.8869629-4.8284206
			c2.682888,0.0161886,4.8446007,2.2041998,4.8284378,4.887043C61.7781258,19.8342533,59.5901184,21.9959717,56.90728,21.9798069z"
			/>
		<path class="st0" d="M34.4491577,6.9818172c-1.9836578-0.0119777-3.6446762,0.7818809-4.9650383,1.9757242l-0.0005589-0.7102098
			V8.2372046c0-0.1828051-0.0056973-0.2382627-0.0056973-0.4267402c0-0.2609758-0.0587196-0.5630703-0.7584362-0.5630703h-3.9157543
			c-0.3122215,0-0.5653324,0.2530885-0.5653324,0.5653105v24.8926067c0,0.3122215,0.2531109,0.5653343,0.5653324,0.5653343
			h4.1287956c0.3122215,0,0.5653095-0.2531128,0.5653095-0.5653343v-6.6977825l-0.0001965-0.2557182
			c1.2842827,0.9471092,2.8971214,1.4987621,4.8292427,1.5104237c5.6003113,0.0337906,10.1675797-4.4787331,10.2013702-10.0790291
			C44.5619621,11.5829315,40.049469,7.0155835,34.4491577,6.9818172z M34.3586922,21.9797325
			c-2.6828403-0.0161877-4.8445797-2.2041512-4.8284149-4.8869934c0.0161896-2.6828432,2.2041969-4.8446112,4.8870125-4.8284216
			c2.6828384,0.0161648,4.8445778,2.2041759,4.8284149,4.8870192
			C39.2295151,19.8342037,37.0415306,21.9959221,34.3586922,21.9797325z"/>
		<path class="st0" d="M111.1675415,7.2474184h-3.5635147c-0.4393463,0-1.1128693-0.0747628-1.1128693,0.5629973
			c0,0.1535668-0.0037231,0.2702518-0.0037231,0.4282002v0.0018749l-0.0005646,0.709796
			c-1.3190689-1.1898508-2.9774551-1.980423-4.9571228-1.9684696c-5.6003113,0.0337663-10.1128311,4.6011143-10.0790405,10.2013874
			c0.0337906,5.600296,4.601059,10.1128197,10.2013474,10.0790291c1.9281769-0.0116367,3.5385361-0.5608559,4.8215485-1.5044346
			l-0.0001907,0.2513351v0.3103962c-0.020546,3.1304703-1.6384048,4.8487492-4.3260117,4.8487492
			c-1.6554413,0-2.8295135-0.6743011-3.316803-1.7888546c-0.0893707-0.2043743-0.2907944-0.3363476-0.5138702-0.3363476h-5.7022629
			c-0.3705292,0-0.6448975,0.3523426-0.5495605,0.7103806c1.0435638,3.9192677,4.7086411,6.3994617,9.8892975,6.3994617
			c3.8643875,0,6.0601807-1.3223343,8.1108398-3.808567c1.3088226-1.586916,1.6179962-3.4710541,1.6644974-5.5847664h0.0033112
			V7.8127289C111.7328491,7.5005069,111.4797592,7.2474184,111.1675415,7.2474184z M101.6201859,21.9797325
			c-2.6828079,0.0161896-4.8707962-2.1455288-4.8869858-4.8283958c-0.0161896-2.6828432,2.1455536-4.8708544,4.828392-4.8870192
			c2.6828384-0.0161896,4.8708496,2.1455784,4.8870087,4.8284216
			C106.4647903,19.7755814,104.3030243,21.9635448,101.6201859,21.9797325z"/>
		<path class="st0" d="M134.1786194,17.7411346c0.0288391-0.4807625,0.0241852-0.9705563-0.0163269-1.4671173
			c-0.4004211-4.9089165-4.3840027-8.8783789-9.2942581-9.2619743c-6.24823-0.4881201-11.42173,4.689116-10.9273529,10.9385452
			c0.3824844,4.8349152,4.243988,8.7855682,9.0700836,9.2666302c4.5546112,0.4540005,8.5707321-2.1077232,10.2929306-5.9265747
			c0.1536407-0.3406754-0.1010895-0.7273598-0.4748077-0.7273598h-4.5212708c-0.5261154,0-0.9991684,0.2075977-1.4322662,0.5176296
			c-0.7955627,0.5695019-1.7692871,0.9055481-2.8223953,0.9055481c-2.1378403,0-3.949379-1.3818703-4.6005325-3.2996368
			l13.7201233-0.0190735C133.6979065,18.6677513,134.147171,18.265564,134.1786194,17.7411346z M124.0529556,12.2629185
			c2.0619125,0,3.8197098,1.2856913,4.5265427,3.0973997h-9.053093
			C120.2332916,13.5486097,121.9910431,12.2629185,124.0529556,12.2629185z"/>
	</g>
</g>
</svg>
